<?xml version="1.0" encoding="UTF-8"?>
<svg version="1.1" xmlns="http://www.w3.org/2000/svg" width="2000" height="1985">
<path d="M0 0 C-0.15146484 0.6077124 -0.30292969 1.2154248 -0.45898438 1.84155273 C-6.21542636 22.61084927 -6.21542636 22.61084927 -3.59375 43.40234375 C-2.2594162 46.09050186 -2.2594162 46.09050186 0 47 C5.18059434 46.95928806 9.98071147 46.46105401 14 43 C18.2151127 37.45254367 20.25124375 31.73725858 22 25.0625 C24.32273557 16.23745527 27.52240698 7.6800178 34 1 C36.75 -0.3125 36.75 -0.3125 39 -1 C47.03332135 7.25646917 48.67566683 18.24664969 50.5625 29.25 C52.2169677 39.45947651 52.2169677 39.45947651 56 49 C56.66 49.33 57.32 49.66 58 50 C58.17813232 49.45545166 58.35626465 48.91090332 58.53979492 48.34985352 C68.28274476 18.81150349 68.28274476 18.81150349 77 13 C80.44496529 11.85167824 82.40647727 11.33996521 86 12 C90.66496405 14.54180733 93.25896386 17.73022684 94.9375 22.75 C97.29205682 32.48996794 95.97699072 39.74831949 91.75 48.625 C90.73182969 51.84920599 90.95479412 53.79470197 92 57 C96.2096675 60.29946912 100.31804633 61.14227991 105.5625 61.125 C106.44164062 61.13144531 107.32078125 61.13789062 108.2265625 61.14453125 C111.01115388 61.07802316 111.01115388 61.07802316 113.7109375 60.38671875 C116.75921668 59.74474591 118.91684323 59.47035156 122 60 C125.71020325 62.77251527 128.49975927 65.90159592 131.52294922 69.41210938 C133.16323205 71.17548119 134.90864452 72.71546375 136.73828125 74.28125 C142.45896993 79.18488989 147.65203312 84.60631936 152.93359375 89.97265625 C157.78573905 94.87198611 162.74273307 99.53889883 168 104 C169.44246094 105.24716797 169.44246094 105.24716797 170.9140625 106.51953125 C190.87674692 123.40439545 214.2583393 139.52693349 240.42578125 144.45703125 C244.44702537 143.74309261 246.11836287 140.85917286 248.4375 137.75 C249.21130005 136.74332275 249.21130005 136.74332275 250.00073242 135.71630859 C251.69072492 133.49416439 253.34864507 131.25098237 255 129 C255.83096191 127.87609863 255.83096191 127.87609863 256.67871094 126.72949219 C273.72239088 103.51499464 288.36216092 78.35071695 300 52 C300.66 52 301.32 52 302 52 C308.67272671 78.20854106 301.17729222 102.31133427 288.21484375 125.14453125 C286.55382881 127.826501 284.80978039 130.41622548 283 133 C282.63825684 133.52867676 282.27651367 134.05735352 281.90380859 134.60205078 C273.24285089 147.2564921 263.33563022 158.69460694 253 170 C254.55472881 173.88237996 256.94727654 175.94962528 260.0625 178.6875 C268.3968762 186.15121278 276.20273407 194.14900176 284.06469727 202.10229492 C284.5925885 202.6343454 285.12047974 203.16639587 285.66436768 203.71456909 C287.11278198 205.1745306 288.55808747 206.63757446 290.00317383 208.10083008 C292.17448621 210.24874656 294.43130413 212.2586914 296.74734497 214.24932861 C300.66224003 217.66310891 304.37371273 221.23187042 308.03930664 224.90991211 C308.6924736 225.56132675 309.34564056 226.21274139 310.01860046 226.88389587 C312.15162075 229.01255749 314.28101207 231.1448057 316.41015625 233.27734375 C317.90638397 234.77289671 319.40276001 236.26830129 320.89927673 237.76356506 C324.02505453 240.88787399 327.14903055 244.01397034 330.27172852 247.14135742 C334.25814122 251.13346689 338.24902715 255.12106947 342.24128056 259.107337 C345.32902037 262.19144929 348.41435722 265.27795669 351.49899101 268.36517525 C352.96894548 269.83579292 354.43963241 271.30567887 355.91108894 272.77479362 C357.97319624 274.83433826 360.03203199 276.89710125 362.09008789 278.96069336 C362.68820282 279.55678406 363.28631775 280.15287476 363.90255737 280.76702881 C367.57188902 284.45450573 371.04393864 288.26762469 374.43396664 292.21366215 C376.67596315 294.77105545 379.06640124 297.12366239 381.5 299.5 C385.25491695 303.16656596 388.73994337 306.95788776 392.17480469 310.92529297 C395.1501607 314.3073924 398.27007304 317.5498318 401.375 320.8125 C406.43704326 326.16720426 411.23738997 331.5950686 415.828125 337.359375 C418.28044329 340.34097062 420.8710877 343.17538479 423.5 346 C428.58404986 351.47755217 433.31789278 357.17757312 438 363 C438.9725947 364.18211285 439.94663895 365.36303406 440.921875 366.54296875 C449.01808307 376.36708732 456.71451271 386.45763444 464.28662109 396.68994141 C465.79288909 398.72076327 467.30962876 400.74298785 468.83203125 402.76171875 C474.4690088 410.27908325 479.77166396 418.00600037 485 425.8125 C485.9425061 427.21580566 485.9425061 427.21580566 486.90405273 428.64746094 C488.17981496 430.56738761 489.44068775 432.49728899 490.68669128 434.43666077 C492.28700621 436.92590141 493.94247351 439.36838537 495.62374878 441.80351257 C503.38132595 453.3597024 506.74947189 464.2658507 509.4453125 477.8125 C509.89664445 479.94370476 510.35115945 482.07423747 510.80856323 484.20414734 C511.77951895 488.75610233 512.72936856 493.31173584 513.66210938 497.87167358 C515.14017448 505.09707144 516.66374967 512.31238991 518.1953125 519.52661133 C519.80397418 527.11377889 521.40959235 534.70152014 522.99932861 542.29267883 C526.9308018 561.0565436 530.98728333 579.79057472 535.1171875 598.51171875 C535.4107997 599.84340288 535.70440046 601.17508952 535.99798965 602.50677872 C537.71562223 610.29647365 539.43633661 618.08548618 541.15755463 625.87438965 C543.32426753 635.68145329 545.48714197 645.48934763 547.64117813 655.29920387 C548.35876081 658.56286086 549.07994611 661.82570811 549.80123901 665.08854675 C550.22968376 667.03904648 550.6579291 668.98959002 551.0859375 670.94018555 C551.2820569 671.8228157 551.47817631 672.70544586 551.68023872 673.61482239 C551.85585272 674.41894562 552.03146671 675.22306885 552.21240234 676.05155945 C552.36558929 676.74659923 552.51877625 677.441639 552.67660522 678.15774059 C553 680 553 680 553 683 C560.44233307 679.71152725 564.35524795 674.81589992 568.4375 668.0625 C571.52480618 663.1091546 574.46259982 658.7627221 579 655 C579.66 655 580.32 655 581 655 C585.0360299 666.06128081 588.49122454 677.06902649 590.8125 688.625 C591.10386841 690.04993774 591.10386841 690.04993774 591.40112305 691.50366211 C594.43374758 707.38065684 595.38408026 723.30389803 595.3125 739.4375 C595.31067719 740.30129272 595.30885437 741.16508545 595.30697632 742.05505371 C595.19821486 772.92063549 590.0723258 802.82478356 583.3125 832.875 C583.16220337 833.54375153 583.01190674 834.21250305 582.85705566 834.90151978 C581.47056288 841.03531755 580.0644306 847.05394873 578 853 C576.11745903 850.17618854 575.49288227 848.55611212 574.71910095 845.33927917 C574.4853476 844.38037277 574.25159424 843.42146637 574.01075745 842.4335022 C573.63599525 840.85609756 573.63599525 840.85609756 573.25366211 839.24682617 C572.85062866 837.58208504 572.85062866 837.58208504 572.43945312 835.88371277 C571.54631525 832.18816293 570.66180779 828.49060327 569.77734375 824.79296875 C569.15207909 822.1977378 568.52635463 819.60262189 567.90003967 817.00764465 C566.58054147 811.53655632 565.26540975 806.06443409 563.95336914 800.59155273 C562.29959212 793.69320101 560.64010129 786.79624091 558.97789574 779.8999157 C558.32844357 777.20530132 557.67972124 774.510513 557.03170204 771.81555367 C555.5977644 765.85267061 554.16214665 759.89025126 552.71336091 753.93095553 C549.80357196 741.95678481 546.94492234 729.99113303 544.48095703 717.91650391 C543.92716532 715.28839395 543.37030095 712.66095412 542.81253242 710.03368568 C542.33633156 707.71048902 541.91396286 705.38205305 541.49412537 703.04814148 C540.20759485 696.64237145 538.84108708 691.98028274 533.4148016 688.0900526 C531.01519277 686.5717477 528.55324402 685.23994277 526 684 C526.46672119 685.4063269 526.46672119 685.4063269 526.94287109 686.84106445 C551.67357809 761.52445275 568.55464751 837.27753626 573.85925293 915.91522217 C573.95181211 917.28622994 574.04719073 918.65705079 574.14562988 920.02764893 C575.33826526 936.94986462 575.24561894 953.91970693 575.25 970.875 C575.25044186 971.65954433 575.25088371 972.44408867 575.25133896 973.25240707 C575.25920012 999.93518622 574.63476706 1026.42816148 572 1053 C571.91514343 1053.86598816 571.83028687 1054.73197632 571.74285889 1055.62420654 C566.08515765 1112.79890969 554.84932314 1169.2820383 537.9375 1224.1875 C537.58119003 1225.34442352 537.58119003 1225.34442352 537.21768188 1226.52471924 C533.02314103 1240.08609323 528.52235882 1253.5450312 524 1267 C529.40762497 1261.72050128 534.79447362 1256.42042857 540.16821289 1251.10644531 C541.99371137 1249.30589194 543.82369679 1247.50987474 545.65844727 1245.71875 C560.54637211 1231.20836474 560.54637211 1231.20836474 572 1214 C572.44013428 1213.17951172 572.88026855 1212.35902344 573.33374023 1211.51367188 C574.40051348 1209.38989735 575.35036483 1207.26172069 576.25 1205.0625 C576.57371582 1204.27875 576.89743164 1203.495 577.23095703 1202.6875 C585.26357044 1182.22774925 587.09023808 1160.03204246 587.23828125 1138.2578125 C587.24722412 1136.9508844 587.25616699 1135.6439563 587.26538086 1134.29742432 C587.29668977 1128.86459392 587.3166692 1123.43194363 587.30541992 1117.99902344 C587.30066039 1115.28441659 587.30929597 1112.57044366 587.33183289 1109.85592651 C587.35212438 1107.33267232 587.35367841 1104.80916484 587.33235168 1102.28591919 C587.64947559 1074.41655183 612.04891578 1048.03567682 627.78320312 1026.66308594 C628.78635707 1025.29200153 629.76394932 1023.902253 630.734375 1022.5078125 C631.15203125 1022.01023437 631.5696875 1021.51265625 632 1021 C632.66 1021 633.32 1021 634 1021 C634.32029998 1023.89513862 634.63110571 1026.79087878 634.9375 1029.6875 C635.02451172 1030.46544922 635.11152344 1031.24339844 635.20117188 1032.04492188 C636.93019839 1048.63076886 637.11550933 1065.22401772 636.76951218 1081.87868309 C636.66699522 1087.19801766 636.61239059 1092.51795224 636.55078125 1097.83789062 C636.47260924 1104.54494562 636.37940928 1111.25051532 636.22509766 1117.95629883 C636.10019261 1123.44007872 636.02962706 1128.92221587 635.99528885 1134.40728188 C635.97259664 1136.47868985 635.93037523 1138.54998651 635.86753464 1140.62056541 C635.0730865 1152.14363505 635.0730865 1152.14363505 639.32208252 1162.39248657 C642.09174748 1164.95134689 644.82832693 1166.97195761 648 1169 C649.8853168 1170.4659944 651.76192703 1171.94333865 653.625 1173.4375 C654.44226562 1174.05496094 655.25953125 1174.67242188 656.1015625 1175.30859375 C658 1177 658 1177 659 1180 C659.12152801 1182.63384338 659.18770272 1185.24026063 659.203125 1187.875 C659.21371445 1189.05704514 659.21371445 1189.05704514 659.22451782 1190.26296997 C659.48861965 1228.61965529 654.22174705 1264.50020607 642 1301 C641.61295898 1302.15999512 641.22591797 1303.31999023 640.82714844 1304.51513672 C636.11564099 1318.55649366 631.14497541 1332.49595474 625.95043945 1346.36547852 C623.58376257 1352.69071235 621.26472313 1359.02949847 619.0078125 1365.39453125 C607.04835589 1399.08490548 593.64282335 1431.84773914 578 1464 C577.51692383 1465.00321289 577.03384766 1466.00642578 576.53613281 1467.04003906 C569.954993 1480.69798991 562.60657529 1493.88925034 555 1507 C554.64111694 1507.62338257 554.28223389 1508.24676514 553.91247559 1508.88903809 C547.71890375 1519.63824981 541.16808135 1530.07846169 534.25 1540.375 C533.77199951 1541.08889893 533.29399902 1541.80279785 532.80151367 1542.53833008 C521.04350757 1560.08633753 508.63417066 1576.86019857 495 1593 C494.48727539 1593.61182129 493.97455078 1594.22364258 493.44628906 1594.85400391 C482.28504173 1608.16834807 470.38541626 1620.69463066 458.125 1633 C457.24529541 1633.88437744 456.36559082 1634.76875488 455.45922852 1635.67993164 C450.46614636 1640.66071206 445.36410337 1645.4231298 440 1650 C438.91686218 1650.94925969 437.83478139 1651.89972722 436.75390625 1652.8515625 C428.45624775 1660.08862774 419.86586897 1666.86571531 411.05224609 1673.46240234 C409.16028669 1674.87990892 407.27690747 1676.30809305 405.39453125 1677.73828125 C383.00728745 1694.60350445 358.71432006 1709.78646335 333.40087891 1721.85107422 C330.43049527 1723.27253297 327.47156089 1724.71687842 324.51171875 1726.16015625 C322.73470462 1727.02317915 320.95768546 1727.88619201 319.18026733 1728.74838257 C317.383265 1729.62098661 315.58774636 1730.4966439 313.79223633 1731.37231445 C304.09980761 1736.05838239 304.09980761 1736.05838239 299.75 1737.5703125 C284.12482358 1743.03189037 272.9769559 1758.09801721 263.41162109 1771.08789062 C261.85057058 1773.20240941 260.26375361 1775.29625735 258.67578125 1777.390625 C250.23974206 1788.59223317 242.50824667 1800.16200504 235 1812 C233.16697403 1814.88260121 231.33353893 1817.76494184 229.5 1820.6472168 C228.33764096 1822.47671105 227.17730139 1824.30749086 226.01953125 1826.13989258 C224.92589756 1827.86717317 223.80894967 1829.5798987 222.66992188 1831.27758789 C220.89798733 1834.00939025 220.89798733 1834.00939025 219.64257812 1837.25170898 C217.79647867 1841.10742449 216.34978512 1843.30645854 213 1846 C205.37777978 1848.38063191 197.02782724 1847.9518943 189.125 1848.0625 C186.83618639 1848.13915376 184.54759253 1848.22267128 182.25927734 1848.31298828 C177.80212609 1848.48730966 173.34514726 1848.64125601 168.88671875 1848.77880859 C158.17343519 1849.14233446 147.5919382 1850.37613663 137 1852 C135.90816406 1852.16725586 134.81632812 1852.33451172 133.69140625 1852.50683594 C88.61599464 1859.61800183 23.83633575 1873.16366425 -10 1907 C-11.85722514 1906.93462568 -13.71204399 1906.79638141 -15.5625 1906.625 C-16.57441406 1906.53476563 -17.58632812 1906.44453125 -18.62890625 1906.3515625 C-21.0064677 1906.10361287 -23.38019167 1905.81741214 -25.75 1905.50390625 C-95.60380112 1896.70682544 -169.47458308 1919.64764739 -235.02734375 1941.3125 C-235.76210434 1941.55478333 -236.49686493 1941.79706665 -237.25389099 1942.04669189 C-241.40129052 1943.42410476 -241.40129052 1943.42410476 -245.37329102 1945.23046875 C-252.42853565 1947.29740165 -261.12298974 1944.55762013 -268.234375 1943.3125 C-270.36344463 1942.94809552 -272.49260058 1942.58419517 -274.62182617 1942.22070312 C-275.771539 1942.02355713 -276.92125183 1941.82641113 -278.10580444 1941.62329102 C-307.32135467 1936.62636105 -336.6050137 1932.10151048 -365.90280151 1927.6159668 C-449.62169955 1914.79511126 -449.62169955 1914.79511126 -485 1908 C-485.95938477 1907.8158252 -486.91876953 1907.63165039 -487.90722656 1907.44189453 C-534.7277337 1898.40539558 -580.747137 1886.56420887 -624.70874023 1867.84106445 C-637.01775452 1863.32273156 -650.39205682 1867.72304639 -661.8515625 1872.82421875 C-675.19631571 1879.09909207 -686.95672648 1888.03893504 -698.5324707 1897.0715332 C-710.55148013 1906.43266267 -722.2628827 1913.51320439 -737 1918 C-738.12921875 1918.35191406 -738.12921875 1918.35191406 -739.28125 1918.7109375 C-757.86140082 1923.64182368 -779.0425009 1921.12081061 -796.0703125 1912.43359375 C-806.16018875 1906.37685745 -813.72538167 1898.51717211 -819 1888 C-819.41378906 1887.21625 -819.82757812 1886.4325 -820.25390625 1885.625 C-826.42725735 1871.85864214 -823.0770576 1855.76324077 -819.96484375 1841.640625 C-817.33356588 1829.50239331 -816.65786729 1817.4035609 -823.2578125 1806.4296875 C-830.26838558 1796.65261025 -838.68684618 1787.22040479 -851 1785 C-855.33924312 1784.85230276 -859.66038983 1784.88253687 -864 1785 C-863.84015625 1785.67933594 -863.6803125 1786.35867188 -863.515625 1787.05859375 C-862.92465615 1790.42980239 -862.79392132 1793.64029681 -862.75 1797.0625 C-862.72421875 1798.27035156 -862.6984375 1799.47820312 -862.671875 1800.72265625 C-863.02174206 1804.21716173 -863.47089764 1805.60554892 -866 1808 C-871.96387713 1808.91751956 -875.26600732 1807.36841787 -880 1804 C-883.42753 1800.24077354 -883.28056875 1796.72069717 -883.22924805 1791.87988281 C-882.73650453 1785.68989079 -880.75440919 1779.77791293 -879.04492188 1773.83398438 C-876.99494458 1766.28524444 -876.09395542 1760.05034474 -879.5 1752.8125 C-884.23573908 1747.48479353 -890.06313955 1743.77868217 -897 1742 C-902.24816734 1751.6566279 -898.68682993 1760.4368898 -895.81201172 1770.37939453 C-893.4511986 1778.66048072 -892.65530081 1785.44564441 -894 1794 C-921.11759592 1791.47743294 -944.27302134 1783.36948811 -964 1764 C-964.77214844 1763.25234375 -965.54429687 1762.5046875 -966.33984375 1761.734375 C-978.01740691 1749.67754056 -984.97854157 1733.84486768 -985 1717 C-983.97643297 1702.83755434 -978.12004886 1691.38098299 -970 1680 C-968.65327928 1678.0085664 -967.32605151 1676.00532066 -966 1674 C-967.18142578 1672.47246094 -967.18142578 1672.47246094 -968.38671875 1670.9140625 C-980.74538368 1654.88363419 -992.45518782 1638.84719361 -1002.6328125 1621.32861328 C-1003.8526601 1619.25095142 -1005.10255154 1617.19804108 -1006.375 1615.15234375 C-1032.85965073 1572.20592895 -1053.27577523 1521.39927773 -1065.65625 1472.6171875 C-1069.14650264 1459.04553209 -1074.17746851 1448.85418357 -1082.28710938 1437.45654297 C-1085.14227945 1433.36179934 -1087.75977298 1429.12559796 -1090.375 1424.875 C-1091.17200317 1423.58335937 -1091.17200317 1423.58335937 -1091.98510742 1422.265625 C-1116.96319075 1381.53133242 -1139.229647 1339.01974752 -1156.75689697 1294.54095459 C-1161.97644545 1281.3174921 -1168.05640372 1269.04307874 -1175.35302734 1256.82128906 C-1178.31373413 1251.74955358 -1181.04797587 1246.5554202 -1183.8125 1241.375 C-1187.86758578 1233.80962277 -1192.04565157 1226.40363159 -1196.70703125 1219.1953125 C-1198 1217 -1198 1217 -1198 1215 C-1198.66 1215 -1199.32 1215 -1200 1215 C-1200.0825 1216.010625 -1200.165 1217.02125 -1200.25 1218.0625 C-1201.02294598 1223.35503292 -1203.19425819 1227.34903606 -1207.1875 1231 C-1211.93084966 1232.68652432 -1216.34620915 1232.20577921 -1220.92578125 1230.125 C-1227.77308443 1225.75244276 -1231.69174863 1219.03094262 -1233.75 1211.3125 C-1234.19817711 1209.21481896 -1234.61381098 1207.10997311 -1235 1205 C-1235.20496094 1203.90558594 -1235.40992188 1202.81117187 -1235.62109375 1201.68359375 C-1237.61089875 1189.62125863 -1238.85768179 1177.49231023 -1233.875 1166.0390625 C-1232.86855193 1164.06349136 -1232.86855193 1164.06349136 -1233 1162 C-1233.53367187 1161.78085938 -1234.06734375 1161.56171875 -1234.6171875 1161.3359375 C-1262.52708766 1149.45732947 -1282.68388157 1125.36784633 -1293.96582031 1097.625 C-1307.9319518 1060.66941503 -1306.04282299 1019.61191519 -1290.125 983.5625 C-1286.20780434 974.97152817 -1281.72217679 966.58716181 -1276.48413086 958.72460938 C-1274.79540544 955.62439952 -1274.16149892 952.95210251 -1273.4921875 949.48828125 C-1273.23054564 948.17825615 -1272.96865233 946.86828125 -1272.70654297 945.55834961 C-1272.57197693 944.86852997 -1272.43741089 944.17871033 -1272.29876709 943.46798706 C-1263.69260054 899.69280703 -1250.14909905 857.15627313 -1233 816 C-1232.60841705 815.05598328 -1232.60841705 815.05598328 -1232.20892334 814.09289551 C-1223.85399257 793.96342592 -1214.55234882 774.33622153 -1204.89123535 754.80462646 C-1203.57510023 752.13963761 -1202.26884728 749.46981435 -1200.9609375 746.80078125 C-1196.44322126 737.62818245 -1191.7345138 728.58732374 -1186.8125 719.625 C-1185.3178876 716.89398931 -1183.82389123 714.1626459 -1182.33105469 711.43066406 C-1181.5152532 709.94091359 -1180.69632688 708.45286254 -1179.87207031 706.96777344 C-1174.22201071 696.72197158 -1170.29864157 685.9327334 -1166.36279297 674.9387207 C-1163.00419035 665.58264465 -1159.38905106 656.36191054 -1155.5625 647.1875 C-1155.0665332 645.99680908 -1154.57056641 644.80611816 -1154.05957031 643.5793457 C-1153.58745117 642.45359131 -1153.11533203 641.32783691 -1152.62890625 640.16796875 C-1152.18119873 639.09724121 -1151.73349121 638.02651367 -1151.2722168 636.92333984 C-1150.50134432 635.15200478 -1149.69230211 633.39576786 -1148.81567383 631.67431641 C-1145.44139722 624.99943401 -1145.09361718 618.38456252 -1144.5625 611 C-1138.77474135 542.13001898 -1102.57772592 488.02363518 -1059.66918945 436.05029297 C-1058.4977528 434.61139798 -1057.34688379 433.15562996 -1056.21166992 431.68798828 C-1049.51627106 423.1785651 -1041.91268743 415.64355367 -1034.23413086 408.02832031 C-1031.9334681 405.74600024 -1029.64099496 403.45569281 -1027.34960938 401.1640625 C-1025.86765927 399.68702651 -1024.38525297 398.21044806 -1022.90234375 396.734375 C-1022.22815903 396.0613031 -1021.5539743 395.3882312 -1020.85935974 394.69476318 C-1016.94211071 390.81590044 -1012.92243593 387.10719926 -1008.74569702 383.50881958 C-1006.34427867 381.43325493 -1004.01884022 379.27867977 -1001.6875 377.125 C-998.10738788 373.85470527 -994.47083763 370.71973383 -990.6875 367.6875 C-984.9451666 363.05578982 -979.599357 358.05176537 -974.22265625 353.0078125 C-971.175367 350.15147381 -968.06163459 347.38416184 -964.90234375 344.65234375 C-960.8821787 341.16049607 -956.94274577 337.57871385 -953 334 C-952.51402344 333.56059082 -952.02804687 333.12118164 -951.52734375 332.66845703 C-939.80300573 322.04983503 -928.15624369 311.150392 -918 299 C-917.20851563 298.09765625 -916.41703125 297.1953125 -915.6015625 296.265625 C-898.90044204 277.13019711 -881.21973071 253.69474618 -872.77001953 229.47436523 C-870.61752526 225.24924165 -869.11053074 224.47901943 -864.8046875 222.640625 C-864.18907455 222.36981613 -863.57346161 222.09900726 -862.93919373 221.81999207 C-860.92670936 220.94082793 -858.90171264 220.09577849 -856.875 219.25 C-855.46148617 218.63910315 -854.04897809 218.02587426 -852.63745117 217.41040039 C-849.78190654 216.16938208 -846.92140028 214.94124516 -844.05517578 213.72509766 C-838.45192529 211.34681998 -832.8825416 208.89233324 -827.3125 206.4375 C-826.31541016 206.00010498 -825.31832031 205.56270996 -824.29101562 205.11206055 C-786.84487784 188.64981123 -747.36535817 171.22216348 -717.10546875 142.94140625 C-707.26568392 133.8683579 -707.26568392 133.8683579 -702 134 C-696.48704605 135.27563321 -693.10457759 137.10431996 -690 142 C-687.19975999 146.77568206 -687.21405823 151.60319984 -688 157 C-689.16971949 159.24356034 -690.52150841 161.16972266 -692.00390625 163.21484375 C-693.32017912 165.15743307 -693.32017912 165.15743307 -692.5625 168.375 C-690.84626276 171.25827856 -690.10884276 171.93332553 -687 173 C-682.99632119 172.24505111 -679.27806128 170.44372786 -676.56103516 167.37451172 C-675.35286206 165.44195441 -674.32195618 163.48074789 -673.3125 161.4375 C-665.35182006 146.75510675 -655.2367935 133.48481648 -643.54052734 121.57568359 C-641.92029985 119.91848102 -640.32946048 118.23586306 -638.73828125 116.55078125 C-608.26605268 84.70482266 -565.28199756 64.16861077 -521.0390625 62.78125 C-499.03318768 62.34496651 -463.74070749 61.99632789 -446.5 78.375 C-443.23001234 84.09747841 -442.7723638 89.26836556 -443.3125 95.75 C-443.46138672 97.69132812 -443.46138672 97.69132812 -443.61328125 99.671875 C-444 103 -444 103 -445 106 C-444.42056641 105.87882812 -443.84113281 105.75765625 -443.24414062 105.6328125 C-434.05816355 103.83028115 -424.80710064 102.9133131 -415.5 102 C-414.62185638 101.91351196 -413.74371277 101.82702393 -412.83895874 101.73791504 C-379.83563902 98.51626426 -347.15660806 97.70567709 -314 98 C-314.02199463 96.89914063 -314.04398926 95.79828125 -314.06665039 94.6640625 C-313.92212309 86.71876681 -307.97162886 80.51280839 -302.515625 75.1796875 C-301 74 -301 74 -299 74 C-298.87882813 74.62648438 -298.75765625 75.25296875 -298.6328125 75.8984375 C-298.46523438 76.71570313 -298.29765625 77.53296875 -298.125 78.375 C-297.96257813 79.18710938 -297.80015625 79.99921875 -297.6328125 80.8359375 C-297.13341068 83.18673923 -297.13341068 83.18673923 -295 85 C-292.46048456 84.90888062 -292.46048456 84.90888062 -290 84 C-287.7442374 80.61635609 -287.610048 78.74331074 -287.1875 74.75 C-286.30884379 68.88578337 -285.50955414 64.96299642 -281 61 C-272.39687315 55.83724333 -263.0368587 52.76749223 -253.5 49.875 C-252.79258667 49.65833679 -252.08517334 49.44167358 -251.35632324 49.21844482 C-217.22474359 38.8003922 -181.79509292 36.70368554 -146.32012939 35.04595947 C-106.74845849 33.73787866 -106.74845849 33.73787866 -67.78515625 27.453125 C-64.71234702 26.95320092 -62.9649436 27.07579901 -60 28 C-58.1472168 29.85766602 -58.1472168 29.85766602 -56.44921875 32.25390625 C-55.83369141 33.10791016 -55.21816406 33.96191406 -54.58398438 34.84179688 C-53.95814453 35.73962891 -53.33230469 36.63746094 -52.6875 37.5625 C-52.04232422 38.46419922 -51.39714844 39.36589844 -50.73242188 40.29492188 C-49.14214352 42.52131157 -47.56551844 44.75616419 -46 47 C-38.56332421 45.63397014 -33.07512186 41.87100996 -28.4375 35.875 C-24.62056422 30.08317634 -22.27796524 23.62595808 -19.92749023 17.13232422 C-17.29057611 10.01933269 -14.30104356 4.78733099 -7.375 1.0625 C-6.24191406 0.43021484 -6.24191406 0.43021484 -5.0859375 -0.21484375 C-3 -1 -3 -1 0 0 Z " fill="#F14901" transform="translate(1322,20)"/>
<path d="M0 0 C3.28630017 0.01090133 6.57256015 0.01041595 9.85887527 0.01000977 C33.56423618 0.01059854 57.03616947 0.77728377 80.66101074 2.81524658 C83.62565631 3.06984587 86.59099963 3.31470851 89.55651855 3.55889893 C107.84458977 5.09747128 126.07205501 7.22122753 144.13464355 10.50811768 C145.29898926 10.71904053 146.46333496 10.92996338 147.66296387 11.14727783 C217.60091437 24.13629573 289.06789591 50.77447595 341.74353027 99.79278564 C343.24103771 101.17840203 344.74980409 102.55043141 346.2635498 103.91827393 C356.09966166 112.81753696 365.8058455 121.95017106 374.25964355 132.19561768 C374.69244629 132.71462646 375.12524902 133.23363525 375.57116699 133.76837158 C391.31368931 152.7130302 402.47827143 170.67524545 404.3729248 195.75421143 C404.45722244 196.86823837 404.54152008 197.98226532 404.62837219 199.13005066 C405.58429314 213.11868253 405.52240153 227.10889901 405.45526123 241.121521 C405.44436731 243.98883327 405.4448422 246.85609934 405.44526005 249.72342873 C405.44466706 267.96933221 405.22192024 286.06336198 402.94714355 304.19561768 C402.81670654 305.23887207 402.68626953 306.28212646 402.55187988 307.35699463 C402.13250441 310.63813531 401.69789821 313.91694928 401.25964355 317.19561768 C401.04501465 318.84763184 401.04501465 318.84763184 400.8260498 320.53302002 C396.73630527 351.39159021 396.73630527 351.39159021 387.50964355 360.32061768 C377.62455855 367.78141377 365.2698179 369.50717179 353.2088623 369.49639893 C352.25694504 369.50186234 351.30502777 369.50732574 350.32426453 369.51295471 C347.19841393 369.52458035 344.07299572 369.51814195 340.94714355 369.50811768 C339.86572083 369.50729187 338.7842981 369.50646606 337.67010498 369.50561523 C307.53701681 369.45332856 277.46869692 367.60909615 247.43933105 365.21124268 C246.48895966 365.13789703 245.53858826 365.06455139 244.55941772 364.98898315 C219.53876766 362.91756338 197.19595448 358.08465971 180.25964355 338.19561768 C177.62173972 334.86722133 175.10356427 331.45325874 172.59094238 328.02984619 C168.46533892 322.41371933 164.10729746 317.21068306 159.25964355 312.19561768 C158.38517578 311.2904541 158.38517578 311.2904541 157.49304199 310.36700439 C150.36064816 303.01960815 143.22637623 295.78181153 135.1463623 289.46514893 C132.91486857 287.71075398 130.74899737 285.92443883 128.5916748 284.08233643 C115.3986734 272.90088966 101.57644563 264.93563555 85.25964355 259.19561768 C84.18843262 258.80914063 83.11722168 258.42266357 82.0135498 258.0244751 C72.93333143 254.85318028 63.86710412 252.62894054 54.38464355 251.00811768 C53.65831726 250.88176941 52.93199097 250.75542114 52.18365479 250.62524414 C35.92813533 247.83391899 19.73408012 246.61771694 3.25964355 246.19561768 C2.52213867 246.17606018 1.78463379 246.15650269 1.02478027 246.13635254 C-24.51777492 245.49203707 -49.74138239 246.37199304 -74.74035645 252.19561768 C-76.05249893 252.47464798 -77.3650174 252.75191456 -78.67785645 253.02764893 C-96.81785047 256.93784917 -114.00264334 263.24832666 -130.74035645 271.19561768 C-131.72648926 271.6529126 -131.72648926 271.6529126 -132.73254395 272.1194458 C-150.37434169 280.32040198 -166.83947725 290.69943842 -181.74035645 303.19561768 C-182.8114754 304.07512788 -183.88309137 304.95403314 -184.9552002 305.83233643 C-197.36367478 316.08158986 -209.25003791 326.97211608 -219.74035645 339.19561768 C-220.45062988 340.01803955 -221.16090332 340.84046143 -221.8927002 341.68780518 C-270.10798805 399.05789452 -292.70432039 475.65830659 -300.74035645 549.19561768 C-300.89757069 550.60544978 -301.05479824 552.0152804 -301.21203613 553.42510986 C-301.66837418 557.5467466 -302.10784794 561.66998714 -302.53860474 565.79437256 C-302.70778228 567.41170913 -302.87896034 569.02883847 -303.05270386 570.64569092 C-306.33648263 601.49218535 -307.15000019 632.44428343 -307.11811829 663.44244766 C-307.11530671 666.18157464 -307.11552711 668.92069232 -307.11572266 671.65982056 C-307.10009015 701.15496976 -306.13254007 730.36918398 -303.00274658 759.72131348 C-302.76004816 762.00992745 -302.52925485 764.2993382 -302.30334473 766.58966064 C-300.53999186 783.99876255 -297.42359201 801.17606567 -294.30285645 818.38311768 C-294.11567047 819.41956421 -293.9284845 820.45601074 -293.73562622 821.52386475 C-290.3002324 840.41487029 -286.08108903 858.93252165 -280.11535645 877.19561768 C-279.90448395 877.84349243 -279.69361145 878.49136719 -279.47634888 879.15887451 C-263.51629584 928.01892659 -240.60489856 972.68500285 -205.36535645 1010.38311768 C-202.71694229 1013.22070427 -200.13540864 1016.11062009 -197.55285645 1019.00811768 C-194.13696557 1022.76828732 -190.64657382 1026.2220968 -186.75598145 1029.48468018 C-185.38091656 1030.65188641 -184.03770521 1031.8574171 -182.72473145 1033.09405518 C-168.0314109 1046.91399653 -151.09248929 1058.0344588 -133.74035645 1068.19561768 C-133.09888672 1068.57766357 -132.45741699 1068.95970947 -131.79650879 1069.35333252 C-113.07117187 1080.41429725 -91.83732971 1088.14275199 -70.74035645 1093.19561768 C-69.55047119 1093.48275635 -69.55047119 1093.48275635 -68.33654785 1093.7756958 C-62.5061771 1095.14362256 -56.65215295 1096.24323235 -50.74035645 1097.19561768 C-49.8070752 1097.34659912 -48.87379395 1097.49758057 -47.91223145 1097.65313721 C14.21677918 1107.17588735 90.42488069 1100.9186279 142.89245605 1063.73468018 C148.41975318 1059.6541883 153.37095313 1055.00855794 158.25964355 1050.19561768 C158.92818359 1049.54609131 159.59672363 1048.89656494 160.28552246 1048.22735596 C167.96908075 1040.75364636 175.53261095 1033.30921134 182.15808105 1024.86749268 C184.61615325 1021.74236 187.17916874 1018.71970815 189.75964355 1015.69561768 C193.14724072 1011.71615505 196.48035761 1007.70294577 199.75964355 1003.63311768 C219.253985 979.82986654 239.42014264 971.63759687 269.9029541 968.5737915 C291.69952969 966.70923948 313.54698776 966.85519559 335.40588379 966.87994385 C340.96984128 966.88575962 346.53346817 966.86870372 352.0973711 966.84559917 C356.46550843 966.83070367 360.83356867 966.83001077 365.20172691 966.8331089 C367.25091906 966.83260477 369.30011662 966.82754377 371.34928322 966.81729698 C382.16171841 966.76978529 392.82148973 967.13839344 403.5670166 968.40582275 C404.95427429 968.55513386 404.95427429 968.55513386 406.36955738 968.70746136 C414.27115611 969.75512534 421.13990306 972.41497941 427.13464355 977.75811768 C434.24294493 987.48792027 434.37339465 1000.64022662 434.8651123 1012.16827393 C434.90249512 1012.97135986 434.93987793 1013.7744458 434.97839355 1014.60186768 C435.00868652 1015.31665283 435.03897949 1016.03143799 435.07019043 1016.7678833 C435.21649495 1018.64269276 435.45966132 1020.51009235 435.74255371 1022.36920166 C438.2447139 1040.88495078 437.41879617 1060.00756355 437.39001465 1078.6651001 C437.3843232 1082.3835496 437.38770538 1086.10192743 437.3934536 1089.82037449 C437.48604812 1160.3966798 437.48604812 1160.3966798 413.25964355 1189.19561768 C412.82071777 1189.72638916 412.38179199 1190.25716064 411.92956543 1190.80401611 C404.08478073 1200.27994868 395.76013249 1209.30754664 387.25964355 1218.19561768 C386.71163086 1218.77231201 386.16361816 1219.34900635 385.59899902 1219.94317627 C378.22581589 1227.66651357 370.49507872 1234.48199849 361.96520996 1240.90020752 C360.31954669 1242.1501201 358.69891693 1243.42602249 357.0838623 1244.71514893 C320.35368164 1273.76080861 277.40841006 1293.93642751 233.3939209 1309.10675049 C230.56517179 1310.08947529 227.74850475 1311.09875894 224.9354248 1312.12530518 C202.23254875 1320.37292222 178.81295099 1325.964228 155.25964355 1331.19561768 C153.91023682 1331.4989502 153.91023682 1331.4989502 152.53356934 1331.80841064 C69.87955074 1350.18890784 -20.81623793 1351.06476633 -150.90661621 1336.68511963 C-154.01400766 1336.148347 -157.12733845 1335.66601759 -160.2442627 1335.18780518 C-179.9722069 1332.09883181 -199.35395274 1327.96233619 -218.74035645 1323.19561768 C-219.46474915 1323.01752563 -220.18914185 1322.83943359 -220.93548584 1322.65594482 C-284.14717302 1307.04511152 -347.36551656 1281.95114205 -399.03674316 1241.51837158 C-401.6755537 1239.46949289 -404.36667163 1237.49445357 -407.05285645 1235.50811768 C-412.75206513 1231.22987072 -418.26948943 1226.76096188 -423.74035645 1222.19561768 C-424.74711426 1221.36417236 -425.75387207 1220.53272705 -426.7911377 1219.67608643 C-442.40708935 1206.69968777 -457.60968315 1192.70876365 -470.74035645 1177.19561768 C-471.65202678 1176.14649234 -472.56489722 1175.09840926 -473.4786377 1174.05108643 C-501.05382569 1142.34763628 -522.81869092 1106.60382081 -541.74035645 1069.19561768 C-542.19233398 1068.30777588 -542.64431152 1067.41993408 -543.10998535 1066.50518799 C-559.9812759 1033.13218609 -574.02426348 996.72182077 -583.16564941 960.46026611 C-583.98385049 957.23612287 -584.8654547 954.02977145 -585.74035645 950.82061768 C-586.22413731 948.98544894 -586.70769706 947.15021759 -587.18664551 945.31378174 C-587.58662696 943.78369397 -587.99005443 942.25450561 -588.39562988 940.72589111 C-592.67471158 924.53112237 -596.02661584 908.21388685 -599.07629395 891.75274658 C-599.65543037 888.65053418 -600.25444264 885.55340774 -600.86535645 882.45733643 C-603.83386859 867.19232269 -605.68828609 851.79285151 -607.48712158 836.35565186 C-607.73992278 834.19931672 -607.99747309 832.04359963 -608.25646973 829.88800049 C-610.36157966 812.32957399 -612.11551148 794.76943349 -613.42785645 777.13311768 C-613.48861359 776.31843018 -613.54937073 775.50374268 -613.61196899 774.66436768 C-614.01669381 769.17653577 -614.38532593 763.68687446 -614.74035645 758.19561768 C-614.78666608 757.48816973 -614.83297571 756.78072178 -614.88068867 756.05183601 C-615.75418716 742.36767857 -615.90373081 728.71694096 -615.9083252 715.00811768 C-615.91155446 712.69447816 -615.91491964 710.38083884 -615.91841125 708.06719971 C-615.92436223 703.22962982 -615.9262558 698.39207767 -615.92565918 693.55450439 C-615.92557864 688.69151023 -615.93241093 683.82861172 -615.94616699 678.96563721 C-616.01342792 654.78988597 -615.98875906 630.64219721 -614.84973145 606.48858643 C-614.81051764 605.64289597 -614.77130383 604.79720551 -614.73090172 603.92588806 C-613.83880214 585.27761685 -611.91529202 566.73273561 -609.74035645 548.19561768 C-609.59420898 546.94023193 -609.44806152 545.68484619 -609.29748535 544.39141846 C-605.45215377 511.73112876 -599.83413991 479.08168788 -591.74035645 447.19561768 C-591.57340271 446.53511414 -591.40644897 445.8746106 -591.23443604 445.1940918 C-585.14445643 421.15411417 -578.00087501 397.57774762 -569.74035645 374.19561768 C-569.51475037 373.55404724 -569.28914429 372.91247681 -569.05670166 372.25146484 C-544.63369992 302.92883872 -506.58403711 237.06752738 -457.00598145 182.70733643 C-455.78440417 181.35307058 -454.56871331 179.9928062 -453.39050293 178.60064697 C-447.96007514 172.22462649 -442.04446723 166.34847431 -436.11608887 160.440979 C-434.30674712 158.63699682 -432.50281325 156.82773103 -430.69934082 155.0178833 C-424.88313405 149.19802121 -419.04540674 143.49112303 -412.74035645 138.19561768 C-411.73033456 137.31905786 -410.72117343 136.44150493 -409.7130127 135.56280518 C-400.98391485 128.08741668 -391.93711698 121.08464884 -382.74035645 114.19561768 C-382.08744629 113.70529053 -381.43453613 113.21496338 -380.76184082 112.70977783 C-365.97833579 101.63724968 -350.61229349 91.63534551 -334.74035645 82.19561768 C-333.55409668 81.48816406 -333.55409668 81.48816406 -332.34387207 80.76641846 C-298.85298698 60.90726511 -263.55178271 45.69317527 -226.74035645 33.19561768 C-225.93437012 32.91701904 -225.12838379 32.63842041 -224.29797363 32.35137939 C-183.92981035 18.46638699 -141.1130549 9.85340619 -98.74035645 5.19561768 C-96.87540527 4.98944824 -96.87540527 4.98944824 -94.97277832 4.77911377 C-63.30448628 1.35388289 -31.83531262 -0.13318546 0 0 Z " fill="#FAF8F8" transform="translate(1097.7403564453125,328.80438232421875)"/>
<path d="M0 0 C4.93264807 3.21283591 7.71886521 6.51727252 10 12 C12.10530914 26.33364636 6.02146812 37.95975054 -1 50 C-5.28500119 49.15192685 -6.51600012 47.64837482 -9 44 C-16.07694035 32.70360088 -17.21159035 18.99825731 -16 6 C-15.04988473 2.6326797 -14.09017408 0.86652445 -12 -2 C-7.47941224 -3.50686259 -4.23063218 -1.93962538 0 0 Z " fill="#F24800" transform="translate(1935,966)"/>
<path d="M0 0 C9.81375692 9.81375692 18.03758048 21.77728747 18.25 36.0625 C18.27578125 37.10535156 18.3015625 38.14820313 18.328125 39.22265625 C18 42 18 42 16.75390625 43.8515625 C14.56832651 45.2826548 13.28661392 45.37085662 10.6875 45.3125 C9.94886719 45.30863281 9.21023438 45.30476562 8.44921875 45.30078125 C6 45 6 45 0 43 C0 28.81 0 14.62 0 0 Z " fill="#F24800" transform="translate(1930,905)"/>
<path d="M0 0 C0 0.99 0 1.98 0 3 C-1.70898438 4.45458984 -1.70898438 4.45458984 -4.09375 5.9609375 C-5.393125 6.79238281 -5.393125 6.79238281 -6.71875 7.640625 C-7.6365625 8.21296875 -8.554375 8.7853125 -9.5 9.375 C-10.386875 9.93960937 -11.27375 10.50421875 -12.1875 11.0859375 C-13.94556522 12.20282599 -15.70854937 13.31201248 -17.4765625 14.41308594 C-19.11070177 15.44074705 -20.73169901 16.48973667 -22.3359375 17.56347656 C-23.03976563 18.02979492 -23.74359375 18.49611328 -24.46875 18.9765625 C-25.08169922 19.39244629 -25.69464844 19.80833008 -26.32617188 20.23681641 C-28 21 -28 21 -31 20 C-33.61041595 15.16589639 -34.52635001 11.57931011 -34 6 C-33.07703273 2.97937985 -32.22360806 2.15887941 -29.625 0.3125 C-20.62999342 -4.18500329 -9.41067171 -2.37922174 0 0 Z " fill="#F24800" transform="translate(130,1272)"/>
</svg>
